<svg width="32" height="32" viewBox="0 0 32 32" fill="none" xmlns="http://www.w3.org/2000/svg">
<path d="M20.275 15.5876L14.275 11.5876C14.1998 11.5375 14.1124 11.5087 14.0222 11.5043C13.932 11.4999 13.8422 11.52 13.7625 11.5626C13.6826 11.6041 13.6158 11.667 13.5694 11.7442C13.5231 11.8215 13.4991 11.91 13.5 12.0001V20.0001C13.4991 20.0901 13.5231 20.1787 13.5694 20.2559C13.6158 20.3331 13.6826 20.396 13.7625 20.4376C13.8361 20.4756 13.9172 20.497 14 20.5001C14.0988 20.5019 14.1954 20.4711 14.275 20.4126L20.275 16.4126C20.3447 16.3687 20.4022 16.3078 20.442 16.2357C20.4818 16.1635 20.5027 16.0825 20.5027 16.0001C20.5027 15.9177 20.4818 15.8366 20.442 15.7645C20.4022 15.6923 20.3447 15.6315 20.275 15.5876ZM14.5 19.0626V12.9376L19.1 16.0001L14.5 19.0626ZM28.8125 8.85007C28.7092 8.46895 28.5189 8.11702 28.2564 7.82201C27.9939 7.527 27.6665 7.29698 27.3 7.15007C23.075 5.52507 16.2875 5.55007 16 5.55007C15.7125 5.55007 8.925 5.52507 4.7 7.15007C4.33348 7.29698 4.00609 7.527 3.74362 7.82201C3.48115 8.11702 3.29078 8.46895 3.1875 8.85007C2.875 10.0626 2.5 12.2876 2.5 16.0001C2.5 19.7126 2.875 21.9376 3.1875 23.1501C3.29078 23.5312 3.48115 23.8831 3.74362 24.1781C4.00609 24.4731 4.33348 24.7032 4.7 24.8501C8.925 26.4751 15.7125 26.4501 16 26.4501H16.0875C16.95 26.4501 23.2875 26.4001 27.3 24.8501C27.6665 24.7032 27.9939 24.4731 28.2564 24.1781C28.5189 23.8831 28.7092 23.5312 28.8125 23.1501C29.125 21.9376 29.5 19.7126 29.5 16.0001C29.5 12.2876 29.125 10.0626 28.8125 8.85007ZM27.8375 22.9001C27.7774 23.1276 27.6647 23.3378 27.5083 23.5137C27.352 23.6896 27.1564 23.8262 26.9375 23.9126C22.8875 25.4751 16.075 25.4501 16 25.4501C15.925 25.4501 9.1125 25.4751 5.0625 23.9126C4.84358 23.8262 4.64804 23.6896 4.49169 23.5137C4.33534 23.3378 4.22257 23.1276 4.1625 22.9001C3.8625 21.7376 3.5 19.6001 3.5 16.0001C3.5 12.4001 3.8625 10.2626 4.1625 9.10007C4.22257 8.87253 4.33534 8.66232 4.49169 8.48643C4.64804 8.31054 4.84358 8.17391 5.0625 8.08757C9.1125 6.52507 15.925 6.55007 16 6.55007C16.075 6.55007 22.8875 6.52507 26.9375 8.08757C27.1564 8.17391 27.352 8.31054 27.5083 8.48643C27.6647 8.66232 27.7774 8.87253 27.8375 9.10007C28.1375 10.2626 28.5 12.4001 28.5 16.0001C28.5 19.6001 28.1375 21.7376 27.8375 22.9001Z" fill="black"/>
</svg>
